<?xml version="1.0" encoding="UTF-8" standalone="no"?>
<!-- Created with Inkscape (http://www.inkscape.org/) -->

<svg
   xmlns:dc="http://purl.org/dc/elements/1.1/"
   xmlns:cc="http://creativecommons.org/ns#"
   xmlns:rdf="http://www.w3.org/1999/02/22-rdf-syntax-ns#"
   xmlns:svg="http://www.w3.org/2000/svg"
   xmlns="http://www.w3.org/2000/svg"
   xmlns:sodipodi="http://sodipodi.sourceforge.net/DTD/sodipodi-0.dtd"
   xmlns:inkscape="http://www.inkscape.org/namespaces/inkscape"
   width="512"
   height="1024"
   id="svg4063"
   version="1.1"
   inkscape:version="0.48.2 r9819"
   sodipodi:docname="dessin-3.svg"
   inkscape:export-filename="C:\Users\Poste\Desktop\love-0.8.0-win-x64\Kivutar-twinsisters-9ed0a48\backgrounds\mountains0.png"
   inkscape:export-xdpi="90"
   inkscape:export-ydpi="90">
  <defs
     id="defs4065" />
  <sodipodi:namedview
     id="base"
     pagecolor="#ffffff"
     bordercolor="#666666"
     borderopacity="1.0"
     inkscape:pageopacity="0.0"
     inkscape:pageshadow="2"
     inkscape:zoom="0.49497475"
     inkscape:cx="548.69546"
     inkscape:cy="341.0976"
     inkscape:document-units="px"
     inkscape:current-layer="layer1"
     showgrid="true"
     inkscape:window-width="1920"
     inkscape:window-height="1018"
     inkscape:window-x="-8"
     inkscape:window-y="-8"
     inkscape:window-maximized="1">
    <inkscape:grid
       type="xygrid"
       id="grid4082"
       empspacing="16"
       visible="true"
       enabled="true"
       snapvisiblegridlinesonly="true" />
  </sodipodi:namedview>
  <metadata
     id="metadata4068">
    <rdf:RDF>
      <cc:Work
         rdf:about="">
        <dc:format>image/svg+xml</dc:format>
        <dc:type
           rdf:resource="http://purl.org/dc/dcmitype/StillImage" />
        <dc:title></dc:title>
      </cc:Work>
    </rdf:RDF>
  </metadata>
  <g
     inkscape:label="Calque 1"
     inkscape:groupmode="layer"
     id="layer1"
     transform="translate(0,-28.362183)">
    <path
       style="opacity:0.98999999;fill:#2c8eab;fill-opacity:1;stroke:none"
       d="m 1024,252.36214 24,40 c 40,-48 64,-112 136,-144 80,32 96,88 104,104 16,-32 73.004,-118.84201 128,-144 88,32 96,96 120,144 l 0,800.00006 -512,0"
       id="path4086"
       inkscape:connector-curvature="0"
       sodipodi:nodetypes="cccccccc" />
    <path
       style="fill:#a9e3fb;fill-opacity:1;stroke:none"
       d="m 1076.1353,253.91292 c 26.955,-39.69105 53.9549,-81.59087 107.8647,-105.55078 59.4976,23.79903 83.5955,60.87292 95.3304,84.89427 -19.577,-31.43006 -37.3001,-46.87662 -63.3304,-52.89427 -10.9265,-2.52597 -1.5101,28.32658 -8,24 0,0 -14.5719,-17.88562 -24,-16 -9.4281,1.88562 -6.432,23.05258 -16,24 -7.5058,0.74322 -8.4751,-15.48593 -16,-16 -31.6674,-2.16334 -75.8647,57.55078 -75.8647,57.55078 z M 1307.3706,219.3543 C 1332.77,180.29965 1374.9445,127.14302 1416,108.36215 c 58.256,21.18398 81.4525,56.39177 97.4407,91.69773 0,0 -31.9655,-55.51604 -57.4407,-51.69774 -15.3774,2.30482 -8.4714,39.19894 -24,40 -13.3156,0.68691 -10.6844,-32.6869 -24,-32 -15.5286,0.80107 -8.4552,39.6301 -24,40 -9.6121,0.22873 -6.5107,-22.45187 -16,-24 -25.2359,-4.11708 -60.6294,46.99216 -60.6294,46.99216 z"
       id="path4086-5"
       inkscape:connector-curvature="0"
       sodipodi:nodetypes="cccsssssccccsssssc" />
    <path
       style="fill:#055660;fill-opacity:1;stroke:none"
       d="m 968,284.36216 c 32,0 40,12 56,32 l 0,736.00004 -512,0 M 968,284.36216 c -48,0 -72,24 -136,24 -56,0 -112,-56 -192,-56 -72,0 -88,48 -128,64 l 0,736.00004"
       id="path2996"
       inkscape:connector-curvature="0"
       sodipodi:nodetypes="ccccccccc" />
    <path
       style="fill:#31714a;fill-opacity:1;stroke:none;stroke-width:1px;stroke-linecap:butt;stroke-linejoin:miter;stroke-opacity:1"
       d="m 0,336 c 27.118688,0.53093 50.23777,14.06058 72,32 43.57485,-25.54777 72,-64 144,-64 112,0 146.64871,32.40325 208,56 27.45534,-14.58344 56,-24 88,-24 l 0,688 -512,0 z"
       id="path3777"
       inkscape:connector-curvature="0"
       transform="translate(0,28.362183)"
       sodipodi:nodetypes="cccccccc" />
  </g>
</svg>
