<?xml version="1.0" encoding="UTF-8" standalone="no"?>
<!-- Created with Inkscape (http://www.inkscape.org/) -->

<svg
   xmlns:dc="http://purl.org/dc/elements/1.1/"
   xmlns:cc="http://creativecommons.org/ns#"
   xmlns:rdf="http://www.w3.org/1999/02/22-rdf-syntax-ns#"
   xmlns:svg="http://www.w3.org/2000/svg"
   xmlns="http://www.w3.org/2000/svg"
   xmlns:xlink="http://www.w3.org/1999/xlink"
   xmlns:sodipodi="http://sodipodi.sourceforge.net/DTD/sodipodi-0.dtd"
   xmlns:inkscape="http://www.inkscape.org/namespaces/inkscape"
   width="512"
   height="512"
   id="svg2"
   version="1.1"
   inkscape:version="0.48.4 r9939"
   sodipodi:docname="snow.svg"
   inkscape:export-filename="/home/kivutar/Bureau/twinsisters/maps/snow.png"
   inkscape:export-xdpi="90"
   inkscape:export-ydpi="90">
  <defs
     id="defs4">
    <linearGradient
       id="linearGradient4041">
      <stop
         style="stop-color:#ffffff;stop-opacity:1;"
         offset="0"
         id="stop4043" />
      <stop
         style="stop-color:#ffffff;stop-opacity:0.94117647;"
         offset="1"
         id="stop4045" />
    </linearGradient>
    <inkscape:path-effect
       effect="bend_path"
       id="path-effect3825"
       is_visible="true"
       bendpath="m 107,819.86218 8,0"
       prop_scale="1"
       scale_y_rel="false"
       vertical="false" />
    <inkscape:path-effect
       effect="bend_path"
       id="path-effect3823"
       is_visible="true"
       bendpath="m 107,819.86218 8,0"
       prop_scale="1"
       scale_y_rel="false"
       vertical="false" />
    <inkscape:path-effect
       effect="bend_path"
       id="path-effect3821"
       is_visible="true"
       bendpath="m 107,819.86218 8,0"
       prop_scale="1"
       scale_y_rel="false"
       vertical="false" />
    <inkscape:path-effect
       effect="bend_path"
       id="path-effect3819"
       is_visible="true"
       bendpath="m 107,819.86218 8,0"
       prop_scale="1"
       scale_y_rel="false"
       vertical="false" />
    <inkscape:path-effect
       effect="bend_path"
       id="path-effect3817"
       is_visible="true"
       bendpath="m 107,819.86218 8,0"
       prop_scale="1"
       scale_y_rel="false"
       vertical="false" />
    <inkscape:path-effect
       effect="bend_path"
       id="path-effect3815"
       is_visible="true"
       bendpath="m 107,819.86218 8,0"
       prop_scale="1"
       scale_y_rel="false"
       vertical="false" />
    <radialGradient
       inkscape:collect="always"
       xlink:href="#linearGradient4041"
       id="radialGradient4047"
       cx="281"
       cy="41"
       fx="281"
       fy="41"
       r="5"
       gradientUnits="userSpaceOnUse" />
    <radialGradient
       inkscape:collect="always"
       xlink:href="#linearGradient4041"
       id="radialGradient4049"
       cx="281"
       cy="41"
       fx="281"
       fy="41"
       r="5"
       gradientUnits="userSpaceOnUse" />
    <radialGradient
       inkscape:collect="always"
       xlink:href="#linearGradient4041"
       id="radialGradient4051"
       cx="281"
       cy="41"
       fx="281"
       fy="41"
       r="5"
       gradientUnits="userSpaceOnUse" />
    <radialGradient
       inkscape:collect="always"
       xlink:href="#linearGradient4041"
       id="radialGradient4053"
       cx="281"
       cy="41"
       fx="281"
       fy="41"
       r="5"
       gradientUnits="userSpaceOnUse" />
    <radialGradient
       inkscape:collect="always"
       xlink:href="#linearGradient4041"
       id="radialGradient4055"
       cx="281"
       cy="41"
       fx="281"
       fy="41"
       r="5"
       gradientUnits="userSpaceOnUse" />
    <radialGradient
       inkscape:collect="always"
       xlink:href="#linearGradient4041"
       id="radialGradient4057"
       cx="281"
       cy="41"
       fx="281"
       fy="41"
       r="5"
       gradientUnits="userSpaceOnUse" />
    <radialGradient
       inkscape:collect="always"
       xlink:href="#linearGradient4041"
       id="radialGradient4059"
       cx="281"
       cy="41"
       fx="281"
       fy="41"
       r="5"
       gradientUnits="userSpaceOnUse" />
    <radialGradient
       inkscape:collect="always"
       xlink:href="#linearGradient4041"
       id="radialGradient4061"
       cx="281"
       cy="41"
       fx="281"
       fy="41"
       r="5"
       gradientUnits="userSpaceOnUse" />
  </defs>
  <sodipodi:namedview
     id="base"
     pagecolor="#ffffff"
     bordercolor="#666666"
     borderopacity="1.0"
     inkscape:pageopacity="0.0"
     inkscape:pageshadow="2"
     inkscape:zoom="3.959798"
     inkscape:cx="74.801976"
     inkscape:cy="448.94004"
     inkscape:document-units="px"
     inkscape:current-layer="layer1"
     showgrid="true"
     inkscape:window-width="1440"
     inkscape:window-height="845"
     inkscape:window-x="0"
     inkscape:window-y="27"
     inkscape:window-maximized="1">
    <inkscape:grid
       type="xygrid"
       id="grid2985"
       empspacing="64"
       visible="true"
       enabled="true"
       snapvisiblegridlinesonly="true"
       empcolor="#ff0000"
       empopacity="0.25098039"
       dotted="false"
       spacingx="1px"
       spacingy="1px" />
  </sodipodi:namedview>
  <metadata
     id="metadata7">
    <rdf:RDF>
      <cc:Work
         rdf:about="">
        <dc:format>image/svg+xml</dc:format>
        <dc:type
           rdf:resource="http://purl.org/dc/dcmitype/StillImage" />
        <dc:title></dc:title>
      </cc:Work>
    </rdf:RDF>
  </metadata>
  <g
     inkscape:label="Calque 1"
     inkscape:groupmode="layer"
     id="layer1"
     transform="translate(0,-540.36218)">
    <path
       style="opacity:0.25;fill:#000000;fill-opacity:1;stroke:none"
       d="m 64,640.36218 c 8,0 8,-8 16,-8 8,0 8,8 16,8 8,0 8,-8 16,-8 8,0 8,8 16,8 l 0,-36 -64,0 z"
       id="path3804"
       inkscape:connector-curvature="0"
       sodipodi:nodetypes="cccccccc" />
    <path
       style="fill:#ececec;fill-opacity:1;stroke:none"
       d="m 52,596.36218 88,0 m -12,0 c 6,0 12,8 12,16 0,12 -4,20 -12,20 -8,0 -8,-8 -16,-8 -8,0 -8,8 -16,8 -10,0 -8,-8 -16,-8 -8,0 -6,8 -16,8 -8,0 -12,-8 -12,-20 0,-8 6,-16 12,-16"
       id="path2998"
       inkscape:connector-curvature="0"
       sodipodi:nodetypes="ccccccccccc" />
    <path
       style="fill:#ffffff;fill-opacity:1;stroke:none"
       d="m 52,596.36218 88,0 m -12,0 c 6,0 12,8 12,16 -2,-6 -8,-8 -12,-8 -12,0 -20,4 -32,4 -12,0 -20,-4 -32,-4 -3.91579,0 -10,2 -12,8 0,-8 6,-16 12,-16"
       id="path2998-1"
       inkscape:connector-curvature="0"
       sodipodi:nodetypes="ccccssscc" />
    <path
       style="fill:#cccccc;fill-opacity:1;stroke:none"
       d="m 140,612.36218 c 0,12 -4,20 -12,20 -8,0 -8,-8 -16,-8 -8,0 -8,8 -16,8 -10,0 -8,-8 -16,-8 -8,0 -6,8 -16,8 -8,0 -12,-8 -12,-20 0,8 4,12 12,12 8,0 8,-8 16,-8 8,0 8,8 16,8 8,0 8,-8 16,-8 8,0 8,8 16,8 6,0 12,-4 12,-12 z"
       id="path2998-7"
       inkscape:connector-curvature="0"
       sodipodi:nodetypes="ccccccccccccc" />
  </g>
</svg>
