<?xml version="1.0" encoding="UTF-8" standalone="no"?>
<!-- Created with Inkscape (http://www.inkscape.org/) -->

<svg
   xmlns:dc="http://purl.org/dc/elements/1.1/"
   xmlns:cc="http://creativecommons.org/ns#"
   xmlns:rdf="http://www.w3.org/1999/02/22-rdf-syntax-ns#"
   xmlns:svg="http://www.w3.org/2000/svg"
   xmlns="http://www.w3.org/2000/svg"
   xmlns:xlink="http://www.w3.org/1999/xlink"
   xmlns:sodipodi="http://sodipodi.sourceforge.net/DTD/sodipodi-0.dtd"
   xmlns:inkscape="http://www.inkscape.org/namespaces/inkscape"
   width="1024"
   height="512"
   id="svg2"
   version="1.1"
   inkscape:version="0.48.4 r9939"
   sodipodi:docname="snowroof.svg"
   inkscape:export-filename="/home/kivutar/Bureau/twinsisters/maps/snowroof.png"
   inkscape:export-xdpi="90"
   inkscape:export-ydpi="90">
  <defs
     id="defs4">
    <linearGradient
       inkscape:collect="always"
       id="linearGradient4273">
      <stop
         style="stop-color:#643307;stop-opacity:1;"
         offset="0"
         id="stop4275" />
      <stop
         style="stop-color:#452204;stop-opacity:1"
         offset="1"
         id="stop4277" />
    </linearGradient>
    <linearGradient
       id="linearGradient4242">
      <stop
         style="stop-color:#8093e3;stop-opacity:1;"
         offset="0"
         id="stop4244" />
      <stop
         style="stop-color:#ffffff;stop-opacity:1"
         offset="1"
         id="stop4246" />
    </linearGradient>
    <linearGradient
       inkscape:collect="always"
       id="linearGradient4170">
      <stop
         style="stop-color:#c5c4aa;stop-opacity:1"
         offset="0"
         id="stop4172" />
      <stop
         style="stop-color:#79775b;stop-opacity:1"
         offset="1"
         id="stop4174" />
    </linearGradient>
    <linearGradient
       inkscape:collect="always"
       id="linearGradient4086">
      <stop
         style="stop-color:#ececec;stop-opacity:1"
         offset="0"
         id="stop4088" />
      <stop
         style="stop-color:#ffffff;stop-opacity:1"
         offset="1"
         id="stop4090" />
    </linearGradient>
    <linearGradient
       inkscape:collect="always"
       xlink:href="#linearGradient4086"
       id="linearGradient4092"
       x1="160"
       y1="708.36218"
       x2="160"
       y2="676.36218"
       gradientUnits="userSpaceOnUse" />
    <radialGradient
       inkscape:collect="always"
       xlink:href="#linearGradient4170"
       id="radialGradient4176"
       cx="157"
       cy="900"
       fx="157"
       fy="900"
       r="10"
       gradientTransform="matrix(1.6,0,0,0.6,-91.2,364)"
       gradientUnits="userSpaceOnUse" />
    <linearGradient
       inkscape:collect="always"
       xlink:href="#linearGradient4242"
       id="linearGradient4248"
       x1="1044"
       y1="636"
       x2="988"
       y2="580"
       gradientUnits="userSpaceOnUse"
       spreadMethod="pad"
       gradientTransform="translate(-88,28.36217)" />
    <linearGradient
       inkscape:collect="always"
       xlink:href="#linearGradient4273"
       id="linearGradient4279"
       x1="1043"
       y1="603"
       x2="1020"
       y2="580"
       gradientUnits="userSpaceOnUse"
       gradientTransform="translate(-88,28.36217)" />
    <linearGradient
       id="linearGradient4242-9">
      <stop
         style="stop-color:#8093e3;stop-opacity:1;"
         offset="0"
         id="stop4244-6" />
      <stop
         style="stop-color:#ffffff;stop-opacity:1"
         offset="1"
         id="stop4246-1" />
    </linearGradient>
    <linearGradient
       id="linearGradient4242-1">
      <stop
         style="stop-color:#8093e3;stop-opacity:1;"
         offset="0"
         id="stop4244-3" />
      <stop
         style="stop-color:#ffffff;stop-opacity:1"
         offset="1"
         id="stop4246-8" />
    </linearGradient>
    <linearGradient
       inkscape:collect="always"
       xlink:href="#linearGradient4273-2-7"
       id="linearGradient4279-0-1"
       x1="1043"
       y1="603"
       x2="1020"
       y2="580"
       gradientUnits="userSpaceOnUse"
       gradientTransform="translate(-280,220.3622)" />
    <linearGradient
       inkscape:collect="always"
       id="linearGradient4273-2-7">
      <stop
         style="stop-color:#643307;stop-opacity:1;"
         offset="0"
         id="stop4275-2-7" />
      <stop
         style="stop-color:#452204;stop-opacity:1"
         offset="1"
         id="stop4277-5-2" />
    </linearGradient>
    <linearGradient
       inkscape:collect="always"
       xlink:href="#linearGradient4242-1-1"
       id="linearGradient4248-9-9"
       x1="1044"
       y1="636"
       x2="988"
       y2="580"
       gradientUnits="userSpaceOnUse"
       spreadMethod="pad"
       gradientTransform="translate(-280,220.3622)" />
    <linearGradient
       id="linearGradient4242-1-1">
      <stop
         style="stop-color:#8093e3;stop-opacity:1;"
         offset="0"
         id="stop4244-3-6" />
      <stop
         style="stop-color:#ffffff;stop-opacity:1"
         offset="1"
         id="stop4246-8-6" />
    </linearGradient>
    <linearGradient
       inkscape:collect="always"
       xlink:href="#linearGradient4273-2"
       id="linearGradient4279-0"
       x1="1043"
       y1="603"
       x2="1020"
       y2="580"
       gradientUnits="userSpaceOnUse"
       gradientTransform="translate(-280,28.36214)" />
    <linearGradient
       inkscape:collect="always"
       id="linearGradient4273-2">
      <stop
         style="stop-color:#643307;stop-opacity:1;"
         offset="0"
         id="stop4275-9" />
      <stop
         style="stop-color:#452204;stop-opacity:1"
         offset="1"
         id="stop4277-5" />
    </linearGradient>
    <linearGradient
       id="linearGradient4242-5">
      <stop
         style="stop-color:#8093e3;stop-opacity:1;"
         offset="0"
         id="stop4244-4" />
      <stop
         style="stop-color:#ffffff;stop-opacity:1"
         offset="1"
         id="stop4246-13" />
    </linearGradient>
    <radialGradient
       gradientUnits="userSpaceOnUse"
       r="5"
       fy="41"
       fx="281"
       cy="41"
       cx="281"
       id="radialGradient4061"
       xlink:href="#linearGradient4041"
       inkscape:collect="always" />
    <radialGradient
       gradientUnits="userSpaceOnUse"
       r="5"
       fy="41"
       fx="281"
       cy="41"
       cx="281"
       id="radialGradient4059"
       xlink:href="#linearGradient4041"
       inkscape:collect="always" />
    <radialGradient
       gradientUnits="userSpaceOnUse"
       r="5"
       fy="41"
       fx="281"
       cy="41"
       cx="281"
       id="radialGradient4057"
       xlink:href="#linearGradient4041"
       inkscape:collect="always" />
    <radialGradient
       gradientUnits="userSpaceOnUse"
       r="5"
       fy="41"
       fx="281"
       cy="41"
       cx="281"
       id="radialGradient4055"
       xlink:href="#linearGradient4041"
       inkscape:collect="always" />
    <radialGradient
       gradientUnits="userSpaceOnUse"
       r="5"
       fy="41"
       fx="281"
       cy="41"
       cx="281"
       id="radialGradient4053"
       xlink:href="#linearGradient4041"
       inkscape:collect="always" />
    <radialGradient
       gradientUnits="userSpaceOnUse"
       r="5"
       fy="41"
       fx="281"
       cy="41"
       cx="281"
       id="radialGradient4051"
       xlink:href="#linearGradient4041"
       inkscape:collect="always" />
    <radialGradient
       gradientUnits="userSpaceOnUse"
       r="5"
       fy="41"
       fx="281"
       cy="41"
       cx="281"
       id="radialGradient4049"
       xlink:href="#linearGradient4041"
       inkscape:collect="always" />
    <radialGradient
       gradientUnits="userSpaceOnUse"
       r="5"
       fy="41"
       fx="281"
       cy="41"
       cx="281"
       id="radialGradient4047"
       xlink:href="#linearGradient4041"
       inkscape:collect="always" />
    <inkscape:path-effect
       vertical="false"
       scale_y_rel="false"
       prop_scale="1"
       bendpath="m 107,819.86218 8,0"
       is_visible="true"
       id="path-effect3815"
       effect="bend_path" />
    <inkscape:path-effect
       vertical="false"
       scale_y_rel="false"
       prop_scale="1"
       bendpath="m 107,819.86218 8,0"
       is_visible="true"
       id="path-effect3817"
       effect="bend_path" />
    <inkscape:path-effect
       vertical="false"
       scale_y_rel="false"
       prop_scale="1"
       bendpath="m 107,819.86218 8,0"
       is_visible="true"
       id="path-effect3819"
       effect="bend_path" />
    <inkscape:path-effect
       vertical="false"
       scale_y_rel="false"
       prop_scale="1"
       bendpath="m 107,819.86218 8,0"
       is_visible="true"
       id="path-effect3821"
       effect="bend_path" />
    <inkscape:path-effect
       vertical="false"
       scale_y_rel="false"
       prop_scale="1"
       bendpath="m 107,819.86218 8,0"
       is_visible="true"
       id="path-effect3823"
       effect="bend_path" />
    <inkscape:path-effect
       vertical="false"
       scale_y_rel="false"
       prop_scale="1"
       bendpath="m 107,819.86218 8,0"
       is_visible="true"
       id="path-effect3825"
       effect="bend_path" />
    <linearGradient
       id="linearGradient4041">
      <stop
         id="stop4043"
         offset="0"
         style="stop-color:#ffffff;stop-opacity:1;" />
      <stop
         id="stop4045"
         offset="1"
         style="stop-color:#ffffff;stop-opacity:0.94117647;" />
    </linearGradient>
  </defs>
  <sodipodi:namedview
     id="base"
     pagecolor="#ffffff"
     bordercolor="#666666"
     borderopacity="1.0"
     inkscape:pageopacity="0.0"
     inkscape:pageshadow="2"
     inkscape:zoom="0.7"
     inkscape:cx="381.54532"
     inkscape:cy="189.39666"
     inkscape:document-units="px"
     inkscape:current-layer="layer1"
     showgrid="true"
     inkscape:window-width="1440"
     inkscape:window-height="845"
     inkscape:window-x="0"
     inkscape:window-y="27"
     inkscape:window-maximized="1">
    <inkscape:grid
       type="xygrid"
       id="grid2985"
       empspacing="4"
       visible="true"
       enabled="true"
       snapvisiblegridlinesonly="true"
       color="#ff0000"
       opacity="0.1254902"
       spacingy="4px"
       spacingx="4px"
       empcolor="#0000ff"
       empopacity="0"
       dotted="true" />
    <inkscape:grid
       type="xygrid"
       id="grid4254"
       empspacing="1"
       visible="true"
       enabled="true"
       snapvisiblegridlinesonly="true"
       spacingx="64px"
       spacingy="64px" />
  </sodipodi:namedview>
  <metadata
     id="metadata7">
    <rdf:RDF>
      <cc:Work
         rdf:about="">
        <dc:format>image/svg+xml</dc:format>
        <dc:type
           rdf:resource="http://purl.org/dc/dcmitype/StillImage" />
        <dc:title />
      </cc:Work>
    </rdf:RDF>
  </metadata>
  <g
     inkscape:label="Calque 1"
     inkscape:groupmode="layer"
     id="layer1"
     transform="translate(0,-540.36217)">
    <path
       style="fill:#cccccc;fill-opacity:1;fill-rule:evenodd;stroke:none"
       d="m 72,668.36208 c -22.16,0 -40,17.84 -40,40.0001 0,28 0.0162,55.803 0,80 0,4.432 3.568,8 8,8 l 32,0 432,0 32,0 c 4.432,0 8,-3.568 8,-8 0,-28 0,-52 0,-80 0,-22.1601 -17.84,-40.0001 -40,-40.0001 z"
       id="rect3784"
       inkscape:connector-curvature="0"
       sodipodi:nodetypes="sccsccsccss" />
    <rect
       style="fill:#ffffff;fill-opacity:1;fill-rule:evenodd;stroke:none"
       id="rect3800"
       width="328"
       height="120"
       x="32"
       y="668.36224"
       ry="40" />
    <rect
       style="fill:url(#linearGradient4092);fill-opacity:1;fill-rule:evenodd;stroke:none"
       id="rect3804"
       width="312"
       height="112"
       x="40"
       y="676.36218"
       ry="32" />
    <rect
       style="fill:#cfcfcf;fill-opacity:0.99215686;fill-rule:evenodd;stroke:none"
       id="rect3802"
       width="256"
       height="128"
       x="288"
       y="668.36224"
       ry="40" />
    <rect
       style="fill:#ececec;fill-opacity:1;fill-rule:evenodd;stroke:none"
       id="rect3806"
       width="40"
       height="36"
       x="40"
       y="752.36218"
       ry="0" />
    <rect
       style="fill:#ffffff;fill-opacity:1;fill-rule:evenodd;stroke:none"
       id="rect3808"
       width="8"
       height="56"
       x="32"
       y="732.36218" />
    <path
       style="fill:#cccccc;fill-opacity:1;fill-rule:evenodd;stroke:none"
       d="m 288,756.36215 20,0 0,32 -28,0 c 5,0 8,-3 8,-8 z"
       id="rect3810"
       inkscape:connector-curvature="0"
       sodipodi:nodetypes="cccccc" />
    <path
       style="fill:#ececec;fill-opacity:1;fill-rule:evenodd;stroke:none"
       d="m 32,788.36215 8,0 0,8 c -4,0 -8,-3 -8,-8 z"
       id="rect3813"
       inkscape:connector-curvature="0"
       sodipodi:nodetypes="cccc" />
    <path
       sodipodi:nodetypes="ccccccccccccc"
       inkscape:connector-curvature="0"
       id="path2998-7-9"
       d="m 184.01398,784.48012 c 0,12 -4,20 -12,20 -8,0 -8,-8 -16,-8 -8,0 -8,8 -16,8 -10,0 -8,-8 -16,-8 -8,0 -6,8 -16,8 -8,0 -12,-8 -12,-20 0,8 4,12 12,12 8,0 8,-8 16,-8 8,0 8,8 16,8 8,0 8,-8 16,-8 8,0 8,8 16,8 6,0 12,-4 12,-12 z"
       style="fill:#cccccc;fill-opacity:1;stroke:none" />
    <path
       sodipodi:nodetypes="ccccccccccccc"
       inkscape:connector-curvature="0"
       id="path2998-7-3"
       d="m 248.01398,784.48012 c 0,12 -4,20 -12,20 -8,0 -8,-8 -16,-8 -8,0 -8,8 -16,8 -10,0 -8,-8 -16,-8 -8,0 -6,8 -16,8 -8,0 -12,-8 -12,-20 0,8 4,12 12,12 8,0 8,-8 16,-8 8,0 8,8 16,8 8,0 8,-8 16,-8 8,0 8,8 16,8 6,0 12,-4 12,-12 z"
       style="fill:#cccccc;fill-opacity:1;stroke:none" />
    <path
       sodipodi:nodetypes="ccccccccccccc"
       inkscape:connector-curvature="0"
       id="path2998-7-1"
       d="m 312.01398,784.48012 c 0,12 -4,20 -12,20 -8,0 -8,-8 -16,-8 -8,0 -8,8 -16,8 -10,0 -8,-8 -16,-8 -8,0 -6,8 -16,8 -8,0 -12,-8 -12,-20 0,8 4,12 12,12 8,0 8,-8 16,-8 8,0 8,8 16,8 8,0 8,-8 16,-8 8,0 8,8 16,8 6,0 12,-4 12,-12 z"
       style="fill:#cccccc;fill-opacity:1;stroke:none" />
    <path
       sodipodi:nodetypes="ccccccccccccc"
       inkscape:connector-curvature="0"
       id="path2998-7-4"
       d="m 376.01398,784.48012 c 0,12 -4,20 -12,20 -8,0 -8,-8 -16,-8 -8,0 -8,8 -16,8 -10,0 -8,-8 -16,-8 -8,0 -6,8 -16,8 -8,0 -12,-8 -12,-20 0,8 4,12 12,12 8,0 8,-8 16,-8 8,0 8,8 16,8 8,0 8,-8 16,-8 8,0 8,8 16,8 6,0 12,-4 12,-12 z"
       style="fill:#cccccc;fill-opacity:1;stroke:none" />
    <path
       sodipodi:nodetypes="ccccccccccccc"
       inkscape:connector-curvature="0"
       id="path2998-7-1-4"
       d="m 440.01398,784.48012 c 0,12 -4,20 -12,20 -8,0 -8,-8 -16,-8 -8,0 -8,8 -16,8 -10,0 -8,-8 -16,-8 -8,0 -6,8 -16,8 -8,0 -12,-8 -12,-20 0,8 4,12 12,12 8,0 8,-8 16,-8 8,0 8,8 16,8 8,0 8,-8 16,-8 8,0 8,8 16,8 6,0 12,-4 12,-12 z"
       style="fill:#cccccc;fill-opacity:1;stroke:none" />
    <path
       sodipodi:nodetypes="ccccccccccccc"
       inkscape:connector-curvature="0"
       id="path2998-7-1-3"
       d="m 504.01398,784.48012 c 0,12 -4,20 -12,20 -8,0 -8,-8 -16,-8 -8,0 -8,8 -16,8 -10,0 -8,-8 -16,-8 -8,0 -6,8 -16,8 -8,0 -12,-8 -12,-20 0,8 4,12 12,12 8,0 8,-8 16,-8 8,0 8,8 16,8 8,0 8,-8 16,-8 8,0 8,8 16,8 6,0 12,-4 12,-12 z"
       style="fill:#cccccc;fill-opacity:1;stroke:none" />
    <path
       sodipodi:nodetypes="ccccccccccccc"
       inkscape:connector-curvature="0"
       id="path2998-7-1-1"
       d="m 536.01398,784.48012 c 0,12 -4,20 -12,20 -8,0 -8,-8 -16,-8 -8,0 -8,8 -16,8 -10,0 -8,-8 -16,-8 -8,0 -6,8 -16,8 -8,0 -12,-8 -12,-20 0,8 4,12 12,12 8,0 8,-8 16,-8 8,0 8,8 16,8 8,0 8,-8 16,-8 8,0 8,8 16,8 6,0 12,-4 12,-12 z"
       style="fill:#cccccc;fill-opacity:1;stroke:none" />
    <path
       sodipodi:nodetypes="ccccccccccccc"
       inkscape:connector-curvature="0"
       id="path2998-7-9-8"
       d="m 120.01398,784.48012 c 0,12 -4,20 -12,20 -8,0 -8,-8 -16,-8 -8,0 -8,8 -16,8 -10,0 -8,-8 -16,-8 -8,0 -6,8 -16,8 -8,0 -12,-8 -12,-20 0,8 4,12 12,12 8,0 8,-8 16,-8 8,0 8,8 16,8 8,0 8,-8 16,-8 8,0 8,8 16,8 6,0 12,-4 12,-12 z"
       style="fill:#cccccc;fill-opacity:1;stroke:none" />
  </g>
</svg>
