<?xml version="1.0" encoding="UTF-8" standalone="no"?>
<!-- Created with Inkscape (http://www.inkscape.org/) -->

<svg
   xmlns:dc="http://purl.org/dc/elements/1.1/"
   xmlns:cc="http://creativecommons.org/ns#"
   xmlns:rdf="http://www.w3.org/1999/02/22-rdf-syntax-ns#"
   xmlns:svg="http://www.w3.org/2000/svg"
   xmlns="http://www.w3.org/2000/svg"
   xmlns:sodipodi="http://sodipodi.sourceforge.net/DTD/sodipodi-0.dtd"
   xmlns:inkscape="http://www.inkscape.org/namespaces/inkscape"
   width="512"
   height="512"
   id="svg2"
   version="1.1"
   inkscape:version="0.48.4 r9939"
   sodipodi:docname="Nouveau document 1">
  <defs
     id="defs4" />
  <sodipodi:namedview
     id="base"
     pagecolor="#ffffff"
     bordercolor="#666666"
     borderopacity="1.0"
     inkscape:pageopacity="0.0"
     inkscape:pageshadow="2"
     inkscape:zoom="0.98994949"
     inkscape:cx="168.58522"
     inkscape:cy="265.38464"
     inkscape:document-units="px"
     inkscape:current-layer="layer1"
     showgrid="true"
     inkscape:window-width="1440"
     inkscape:window-height="845"
     inkscape:window-x="0"
     inkscape:window-y="27"
     inkscape:window-maximized="1">
    <inkscape:grid
       type="xygrid"
       id="grid2985"
       empspacing="4"
       visible="true"
       enabled="true"
       snapvisiblegridlinesonly="true"
       spacingx="4px"
       spacingy="4px" />
  </sodipodi:namedview>
  <metadata
     id="metadata7">
    <rdf:RDF>
      <cc:Work
         rdf:about="">
        <dc:format>image/svg+xml</dc:format>
        <dc:type
           rdf:resource="http://purl.org/dc/dcmitype/StillImage" />
        <dc:title></dc:title>
      </cc:Work>
    </rdf:RDF>
  </metadata>
  <g
     inkscape:label="Calque 1"
     inkscape:groupmode="layer"
     id="layer1"
     transform="translate(0,-540.36218)">
    <rect
       style="fill:#000000;fill-opacity:1;stroke:none;stroke-width:1;stroke-linecap:round;stroke-linejoin:round;stroke-miterlimit:4;stroke-opacity:1;stroke-dasharray:none"
       id="rect2987"
       width="512"
       height="512"
       x="0"
       y="0"
       transform="translate(0,540.36218)" />
    <rect
       style="fill:#ffffff;fill-opacity:1;stroke:none"
       id="rect3757"
       width="256"
       height="320"
       x="128"
       y="64"
       transform="translate(0,540.36218)"
       ry="16" />
    <rect
       style="fill:#efe600;fill-opacity:1;stroke:none"
       id="rect3759"
       width="224"
       height="288"
       x="144"
       y="80"
       transform="translate(0,540.36218)"
       ry="1.1368684e-13" />
    <path
       sodipodi:type="star"
       style="fill:#efe600;fill-opacity:1;stroke:none"
       id="path3761"
       sodipodi:sides="5"
       sodipodi:cx="192"
       sodipodi:cy="144"
       sodipodi:r1="143.10835"
       sodipodi:r2="73.707199"
       sodipodi:arg1="0.46364761"
       sodipodi:arg2="1.0919661"
       inkscape:flatsided="false"
       inkscape:rounded="0.11"
       inkscape:randomized="0"
       d="m 320,208 c -4.62668,9.25337 -84.85799,-3.34895 -94.04005,1.41768 -9.18206,4.76664 -45.04319,77.63543 -55.27339,76.09464 -10.2302,-1.54079 -23.03752,-81.73963 -30.40827,-88.99931 -7.37075,-7.25969 -87.754796,-18.84795 -89.450724,-29.05359 -1.695927,-10.20562 70.620024,-47.16891 75.246714,-56.42228 4.62668,-9.25337 -9.19226,-89.284105 -0.0102,-94.050742 9.18206,-4.766636 66.68309,52.587638 76.91329,54.128429 10.2302,1.54079 82.07367,-36.332662 89.44442,-29.072975 7.37076,7.259687 -29.4076,79.669858 -27.71168,89.875488 C 266.40604,142.12297 324.62669,198.74663 320,208 z"
       transform="translate(0,540.36218)"
       inkscape:transform-center-x="5.2286075"
       inkscape:transform-center-y="5.7593" />
    <path
       sodipodi:type="star"
       style="fill:#efe600;fill-opacity:1;stroke:none"
       id="path3763"
       sodipodi:sides="5"
       sodipodi:cx="352"
       sodipodi:cy="176"
       sodipodi:r1="80"
       sodipodi:r2="41.203579"
       sodipodi:arg1="0.64350111"
       sodipodi:arg2="1.2718196"
       inkscape:flatsided="false"
       inkscape:rounded="0.08"
       inkscape:randomized="0"
       d="m 416,224 c -2.52365,3.36486 -47.84431,-9.86315 -51.8638,-8.62428 -4.01948,1.23887 -34.0298,37.68504 -38.00983,36.32471 -3.98002,-1.36033 -5.40429,-48.55052 -7.82461,-51.99045 -2.42033,-3.43993 -46.3564,-20.71895 -46.29254,-24.92454 0.0639,-4.20559 44.50427,-20.14272 47.02792,-23.50759 2.52364,-3.36486 5.37998,-50.49005 9.39946,-51.728922 4.01949,-1.238868 32.90945,36.101632 36.88947,37.461962 3.98003,1.36033 49.68141,-10.48562 52.10173,-7.04569 2.42032,3.43993 -24.16511,42.45476 -24.22897,46.66035 C 393.13497,180.83114 418.52365,220.63514 416,224 z"
       transform="translate(0,540.36218)"
       inkscape:transform-center-x="5.8445892"
       inkscape:transform-center-y="-0.29696528" />
    <rect
       style="fill:#ef5e00;fill-opacity:1;stroke:none"
       id="rect3778"
       width="192"
       height="256"
       x="160"
       y="96"
       transform="translate(0,540.36218)"
       ry="1.1368684e-13" />
    <path
       transform="matrix(0.66590179,0,0,0.66590179,64.146857,588.47232)"
       sodipodi:type="star"
       style="fill:#ef5e00;fill-opacity:1;stroke:none"
       id="path3761-7"
       sodipodi:sides="5"
       sodipodi:cx="192"
       sodipodi:cy="144"
       sodipodi:r1="143.10835"
       sodipodi:r2="73.707199"
       sodipodi:arg1="0.46364761"
       sodipodi:arg2="1.0919661"
       inkscape:flatsided="false"
       inkscape:rounded="0.08"
       inkscape:randomized="0"
       d="m 320,208 c -3.36486,6.72972 -87.36219,-2.04896 -94.04005,1.41768 -6.67786,3.46665 -47.83325,77.21522 -55.27339,76.09464 -7.44015,-1.12057 -25.04772,-83.71954 -30.40827,-88.99931 -5.36055,-5.27978 -88.217321,-21.63131 -89.450724,-29.05359 -1.233402,-7.42227 71.881844,-49.69256 75.246714,-56.42228 3.36486,-6.72972 -6.68806,-90.584097 -0.0102,-94.050742 6.67786,-3.466644 69.47315,53.007854 76.91329,54.128429 7.44015,1.120574 84.08388,-34.352747 89.44442,-29.072975 5.36055,5.279772 -28.94508,82.453218 -27.71168,89.875488 C 265.94352,139.33962 323.36486,201.27028 320,208 z"
       inkscape:transform-center-x="3.4817383"
       inkscape:transform-center-y="3.835126" />
    <path
       style="fill:#b23300;fill-opacity:1;stroke:none"
       d="m 352,812.36218 0,80 0,0 -192,0 0,0 0,-128 c 64,-32 160,-16 192,48 z"
       id="rect3778-0"
       inkscape:connector-curvature="0"
       sodipodi:nodetypes="ccccccc" />
    <path
       style="fill:#9d4d8f;fill-opacity:1;stroke:none"
       d="m 352,828.36218 0,64 0,0 -192,0 0,0 0,-112 c 64,-32 160,-16 192,48 z"
       id="rect3778-0-0"
       inkscape:connector-curvature="0"
       sodipodi:nodetypes="ccccccc" />
    <path
       style="fill:#463779;fill-opacity:1;stroke:none"
       d="m 352,844.36218 0,48 0,0 -192,0 0,0 0,-96 c 64,-32 160,-16 192,48 z"
       id="rect3778-0-0-2"
       inkscape:connector-curvature="0"
       sodipodi:nodetypes="ccccccc" />
    <path
       transform="matrix(0.58411729,0,0,0.58411729,146.39072,613.55754)"
       sodipodi:type="star"
       style="fill:#ef5e00;fill-opacity:1;stroke:none"
       id="path3763-9"
       sodipodi:sides="5"
       sodipodi:cx="352"
       sodipodi:cy="176"
       sodipodi:r1="80"
       sodipodi:r2="41.203579"
       sodipodi:arg1="0.64350111"
       sodipodi:arg2="1.2718196"
       inkscape:flatsided="false"
       inkscape:rounded="0.08"
       inkscape:randomized="0"
       d="m 416,224 c -2.52365,3.36486 -47.84431,-9.86315 -51.8638,-8.62428 -4.01948,1.23887 -34.0298,37.68504 -38.00983,36.32471 -3.98002,-1.36033 -5.40429,-48.55052 -7.82461,-51.99045 -2.42033,-3.43993 -46.3564,-20.71895 -46.29254,-24.92454 0.0639,-4.20559 44.50427,-20.14272 47.02792,-23.50759 2.52364,-3.36486 5.37998,-50.49005 9.39946,-51.728922 4.01949,-1.238868 32.90945,36.101632 36.88947,37.461962 3.98003,1.36033 49.68141,-10.48562 52.10173,-7.04569 2.42032,3.43993 -24.16511,42.45476 -24.22897,46.66035 C 393.13497,180.83114 418.52365,220.63514 416,224 z"
       inkscape:transform-center-x="3.4139236"
       inkscape:transform-center-y="-0.17345944" />
    <path
       style="fill:#ffffff;fill-opacity:1;stroke:#ffffff;stroke-width:5;stroke-linecap:round;stroke-linejoin:round;stroke-miterlimit:4;stroke-opacity:1;stroke-dasharray:none"
       id="path3845"
       d="m 234.21591,670.1535 c -0.0765,1.15112 -0.13687,2.30315 -0.20255,3.45496 -0.21494,3.05844 -0.0975,6.12396 -0.0166,9.1848 0.0823,4.69867 0.48732,9.38262 0.86899,14.06403 0.42654,5.81466 1.0153,11.61545 1.58539,17.41728 0.55444,5.89447 1.15424,11.78357 1.80387,17.66825 0.60301,5.43627 1.19575,10.87358 1.76656,16.31332 0.35255,3.39221 0.17813,1.70425 0.52331,5.06389 2.51972,4.83016 -30.00827,21.79881 -32.52799,16.96865 l 0,0 c -0.30249,-3.37411 -0.1492,-1.67899 -0.45995,-5.08534 -0.50838,-5.45955 -1.03201,-10.91777 -1.5944,-16.37205 -0.6082,-5.90681 -1.19229,-11.81547 -1.74078,-17.72815 -0.58818,-5.77579 -1.23166,-11.54571 -1.82281,-17.32113 -0.48982,-4.65987 -1.06482,-9.31333 -1.39227,-13.98835 -0.19846,-3.01326 -0.47758,-6.01978 -0.65445,-9.034 -0.0656,-1.08303 -0.12545,-2.16631 -0.20255,-3.24855 -2.57747,-5.05858 31.48876,-22.41619 34.06623,-17.35761 z"
       inkscape:connector-curvature="0" />
    <path
       style="fill:#ffffff;fill-opacity:1;stroke:#ffffff;stroke-width:5;stroke-linecap:round;stroke-linejoin:round;stroke-miterlimit:4;stroke-opacity:1;stroke-dasharray:none"
       id="path3847"
       d="m 264.09362,688.01543 c -1.12919,-0.11316 -2.32465,-0.15052 -3.47997,-0.15164 -2.01203,-0.0665 -4.01802,-0.24356 -6.02823,-0.35463 -2.87617,-0.1298 -5.74638,-0.37299 -8.61701,-0.59219 -3.17999,-0.29243 -6.36448,-0.52858 -9.54331,-0.83477 -3.24281,-0.21298 -6.48326,-0.4583 -9.72546,-0.68043 -3.15905,-0.2028 -6.31792,-0.40484 -9.4746,-0.64428 -3.02981,-0.26661 -6.05833,-0.54119 -9.08988,-0.78663 -2.88663,-0.20056 -5.7566,-0.59042 -8.64302,-0.78396 -2.9704,-0.26425 -5.94493,-0.48272 -8.91312,-0.77092 -3.21446,-0.22397 -6.41448,-0.59746 -9.61038,-1.00155 -3.5145,-0.47092 -7.02384,-0.97952 -10.53131,-1.5 -3.39399,-0.49948 -6.7808,-1.04592 -10.16667,-1.59732 -3.22299,-0.53449 -6.44115,-1.0968 -9.65677,-1.67372 -2.57543,-0.45774 -5.14525,-0.94592 -7.71517,-1.43336 -2.02607,-5.16249 32.73994,-18.80681 34.76601,-13.64431 l 0,0 c 2.55288,0.48229 5.10784,0.95339 7.66542,1.4102 3.19476,0.56599 6.39195,1.11901 9.59473,1.6379 3.35736,0.54645 6.71754,1.07522 10.08333,1.56745 3.50276,0.50807 7.00824,1.00447 10.52861,1.37606 3.22237,0.3339 6.4503,0.59884 9.67865,0.86763 2.98875,0.2374 5.97585,0.49436 8.96414,0.7373 2.86976,0.29436 5.74305,0.55079 8.61785,0.79094 3.01048,0.26322 6.01776,0.5666 9.0335,0.76683 3.14163,0.22377 6.28542,0.41464 9.42625,0.64959 3.25393,0.23252 6.5082,0.46724 9.75832,0.74738 3.18205,0.26658 6.36392,0.53924 9.54994,0.75413 2.92642,0.18959 5.85433,0.33938 8.7857,0.42693 2.07168,0.0794 4.1466,0.13128 6.21852,0.0334 1.18207,-0.0311 2.47844,-0.0806 3.58802,-0.46271 2.24916,5.20675 -32.81493,20.35341 -35.06409,15.14666 z"
       inkscape:connector-curvature="0" />
    <path
       style="fill:#ffffff;fill-opacity:1;stroke:#ffffff;stroke-width:5;stroke-linecap:round;stroke-linejoin:round;stroke-miterlimit:4;stroke-opacity:1;stroke-dasharray:none"
       id="path3851"
       d="m 289.625,237.99356 c -0.39608,-0.44167 -0.84566,-0.81931 -1.36743,-1.10294 -0.84937,-0.5386 -1.79068,-0.89815 -2.73739,-1.22338 -1.29013,-0.45859 -2.61484,-0.80013 -3.94415,-1.12189 -1.64363,-0.38981 -3.30746,-0.68126 -4.97309,-0.95787 -1.95437,-0.21175 -3.9287,-0.26973 -5.8941,-0.27313 -2.22939,-0.082 -4.44339,0.19872 -6.64586,0.50556 -2.29756,0.35087 -4.54142,0.98277 -6.7629,1.65372 -2.36312,0.68881 -4.59668,1.71753 -6.81387,2.77006 -1.16044,0.55261 -2.2772,1.18972 -3.37296,1.85991 -0.36787,0.225 -1.47022,0.90164 -1.09653,0.68644 27.64093,-15.91768 41.3835,-24.04258 29.88275,-17.24716 -2.13829,1.29403 -4.14726,2.77831 -6.13246,4.29187 -1.87246,1.47435 -3.61846,3.09966 -5.30238,4.78353 -1.3855,1.40828 -2.61269,2.96032 -3.7063,4.60296 -0.73361,1.12322 -1.37697,2.30767 -1.79728,3.58398 -0.33814,1.01956 -0.32379,2.05535 -0.19447,3.10647 0.18098,1.07033 0.72738,1.97398 1.403,2.80024 0.90439,1.06594 1.99722,1.93256 3.1192,2.7547 1.33566,0.90407 2.75355,1.68886 4.16106,2.47626 1.56561,0.87613 3.21113,1.59294 4.86564,2.28109 1.70057,0.72955 3.48419,1.20845 5.27587,1.64952 1.80671,0.48045 3.65665,0.71015 5.51964,0.80148 2.04672,0.0737 4.08667,-0.0751 6.12607,-0.21998 2.14247,-0.15042 4.27557,-0.40726 6.42275,-0.48905 2.27166,-0.17374 4.54015,-0.0949 6.80709,0.089 2.37632,0.28156 4.70074,0.87748 6.99905,1.52711 2.26708,0.69294 4.38863,1.74725 6.45863,2.88591 1.92328,1.08647 3.70549,2.40557 5.38048,3.8409 1.57004,1.35482 2.89411,2.94748 4.05664,4.65703 1.09334,1.67654 1.78881,3.54986 2.29144,5.47545 0.45146,1.89266 0.58271,3.83253 0.48784,5.77034 -0.18228,2.05177 -0.78411,4.01375 -1.598,5.89473 -0.94364,2.03582 -2.27291,3.84563 -3.66892,5.58874 -1.52269,1.83966 -3.31576,3.41692 -5.08252,5.01249 -1.81657,1.66049 -3.79784,3.11533 -5.82687,4.50147 -12.41586,8.04231 -25.05277,15.92464 -38.52851,22.04194 -2.28273,1.02519 -4.63828,1.87866 -6.99807,2.70721 -2.36593,0.83826 -4.77339,1.55058 -7.18405,2.24696 -2.45387,0.68131 -4.93676,1.24962 -7.42059,1.80908 -2.49537,0.53864 -4.99452,1.07212 -7.517,1.46807 -2.50187,0.49761 -5.04186,0.60618 -7.58129,0.73031 -2.62001,0.19323 -5.24125,0.0298 -7.85812,-0.11244 -2.68321,-0.21251 -5.35009,-0.63592 -7.99785,-1.11494 -2.68678,-0.42524 -5.33038,-1.06849 -7.9557,-1.77195 -2.65564,-0.68457 -5.22099,-1.64378 -7.75859,-2.67269 -2.43281,-1.00195 -4.79463,-2.15992 -7.1025,-3.42062 -1.46077,-0.84328 -0.73632,-0.40158 -2.17251,-1.32644 -3.02675,-4.6837 28.51489,-25.06692 31.54164,-20.38322 l 0,0 c 1.36762,0.77845 0.68245,0.39584 2.05543,1.14799 2.21391,1.1457 4.47638,2.1958 6.8075,3.08305 2.44842,0.90909 4.93807,1.70002 7.48326,2.29474 2.57231,0.6016 5.16227,1.12046 7.77657,1.5062 2.57521,0.36709 5.15832,0.70265 7.76403,0.73141 2.54506,0.0701 5.08901,0.005 7.62607,-0.22209 2.46903,-0.21388 4.9131,-0.60753 7.34674,-1.07408 2.46945,-0.50413 4.93831,-1.01305 7.38579,-1.61699 2.45119,-0.60094 4.89394,-1.23995 7.29899,-2.00791 2.36549,-0.74281 4.71763,-1.52815 7.02934,-2.42658 2.30539,-0.90481 4.59059,-1.8654 6.78661,-3.01508 1.27424,-0.67002 0.87922,-0.44796 2.12814,-1.16198 0.34341,-0.19633 1.37043,-0.79095 1.02791,-0.59307 -53.16362,30.71485 -40.10686,22.98876 -28.99319,16.79128 2.06218,-1.25489 4.12333,-2.52964 6.01163,-4.03941 1.79431,-1.43833 3.52747,-2.9596 5.2042,-4.53295 1.47434,-1.43526 2.83019,-2.98361 3.9802,-4.69348 0.93672,-1.44882 1.72633,-2.96497 2.09984,-4.66527 0.3838,-1.50673 0.35809,-3.03189 0.106,-4.56524 -0.27345,-1.49867 -0.7196,-2.94914 -1.5598,-4.23788 -0.98301,-1.40638 -2.0923,-2.7191 -3.4416,-3.79202 -1.54769,-1.20898 -3.1572,-2.34165 -4.92425,-3.21231 -1.89935,-0.93632 -3.86268,-1.73789 -5.94113,-2.18468 -2.15419,-0.48971 -4.33297,-0.91173 -6.5528,-0.89774 -2.19989,-0.0168 -4.39583,0.0971 -6.58911,0.26507 -2.15419,0.20007 -4.31057,0.38493 -6.47317,0.46367 -2.16741,0.0712 -4.34454,0.049 -6.49916,-0.22148 -1.99723,-0.29969 -3.97372,-0.71339 -5.90677,-1.30503 -1.90275,-0.5798 -3.76903,-1.26911 -5.58326,-2.08707 -1.73893,-0.79137 -3.457,-1.629 -5.10475,-2.59906 -1.54888,-0.89113 -3.12547,-1.75199 -4.51524,-2.8867 -1.31357,-1.06318 -2.57186,-2.19638 -3.62999,-3.52145 -1.00895,-1.30302 -1.86554,-2.69339 -2.3266,-4.29157 -0.39129,-1.45855 -0.61172,-2.98139 -0.48346,-4.49295 0.18869,-1.67716 0.5931,-3.30155 1.40341,-4.79885 1.01367,-1.91458 2.17853,-3.73193 3.56952,-5.39868 1.58776,-1.87855 3.30987,-3.63014 5.13984,-5.27452 1.89702,-1.6963 3.90787,-3.26534 5.99929,-4.71553 12.22774,-8.57897 25.33243,-16.07574 38.9603,-22.20795 2.3475,-0.9542 4.74647,-1.77511 7.21493,-2.36036 2.35041,-0.55692 4.72204,-1.03516 7.13676,-1.20441 2.32671,-0.18009 4.65511,-0.24527 6.98804,-0.12901 2.10902,0.10792 4.2207,0.2282 6.29283,0.66853 1.75934,0.32542 3.51526,0.6766 5.24,1.15716 1.45312,0.41166 2.89494,0.86917 4.28425,1.46606 1.15567,0.52359 2.28091,1.11155 3.31253,1.85583 0.64373,0.50896 1.27285,1.03743 1.86895,1.60145 2.96749,4.84251 -29.64366,24.82665 -32.61115,19.98414 z"
       inkscape:connector-curvature="0"
       transform="translate(0,540.36218)" />
    <text
       xml:space="preserve"
       style="font-size:40px;font-style:normal;font-weight:normal;line-height:125%;letter-spacing:0px;word-spacing:0px;fill:#000000;fill-opacity:1;stroke:none;font-family:Sans"
       x="128"
       y="972.36218"
       id="text3908"
       sodipodi:linespacing="125%"><tspan
         sodipodi:role="line"
         id="tspan3910"
         x="128"
         y="972.36218"
         style="fill:#ffffff;fill-opacity:1"><tspan
           style="font-weight:bold;-inkscape-font-specification:Sans Bold"
           id="tspan3914">Twin</tspan><tspan
           style="fill:#808080;fill-opacity:1"
           id="tspan3912">STUDIO</tspan></tspan></text>
  </g>
</svg>
